<svg xmlns="http://www.w3.org/2000/svg" xmlns:xlink="http://www.w3.org/1999/xlink" version="1.1" width="920" height="690" style=""><rect id="backgroundrect" width="100%" height="100%" x="0" y="0" fill="none" stroke="none"/><g class="currentLayer" style=""><title>Layer 1</title><g id="svgg" class=""><path id="path0" d="M24.174760140686345,13.277823504756165 C12.690822622489422,18.652043867529866 13.472653190134555,-5.622193411893337 13.472653190134555,345.48862562826133 C13.472653190134555,628.801021092534 13.797347852107357,666.4979170436138 16.28809769329366,670.6492168029326 C22.42311788530662,680.8709176300039 1.0359931769384096,680.2078883871668 323.33389586862637,680.2078883871668 L616.6656168737908,680.2078883871668 L621.5958489779572,676.8632742066332 C631.8109139355495,669.9346186189858 632.0288011429261,668.6269776122795 632.0288011429261,613.613967935772 L632.0288011429261,562.8774968755632 L625.0606828050619,563.9162426893412 C621.228431334146,564.4871845373399 609.9623810233253,565.4080584857247 600.0207431494993,565.9679498463427 L581.9446495336172,566.9772276937723 L581.4447906461064,602.3719387738904 L580.9449317585957,637.7666498540082 L321.8215023115423,637.7666498540082 L62.69807286448899,637.7666498540082 L62.69807286448899,345.48862562826133 L62.69807286448899,53.210601402514435 L268.4177750133796,52.80541686522516 L474.1374771622702,52.396548832142294 L474.1374771622702,94.66466306300441 C474.1374771622702,150.27808255385898 467.38297373359853,144.27398441039006 531.0914842512148,145.29799624099397 L580.9449317585957,146.10099832398555 L581.4576075406579,168.6808275383807 L581.9745556209041,191.2643402485694 L600.0335600440509,192.2773015917927 C609.9666533215092,192.8335094566171 621.228431334146,193.75438340500187 625.0606828050619,194.32532525300044 L632.0288011429261,195.36407106677854 L632.0288011429261,163.22925376394267 C632.0288011429261,144.3108193683255 631.2085198916263,129.23795458116317 630.0421824874346,126.58583760981494 C627.9402117809789,121.80834356559463 515.4377837055773,23.252730113660302 503.1164757433452,15.392150090247688 L495.87065802353044,10.769362869356037 L262.5647265015009,10.835665793639738 C59.82708848493979,10.890918230542814 28.596588760974203,11.211382364580707 24.174760140686345,13.277823504756165 M304.9245629944037,178.68151861783954 C250.0981604010179,194.25533883292323 230.98817062464332,244.6529282801263 253.2083934788628,315.0592668778342 C270.69918224355706,370.47746109163114 321.24474205672226,396.552927814095 364.7281929719782,372.5917876771227 L373.27278933968427,367.88428005297965 L375.490112097104,354.22956114632984 C379.9973866810688,326.4302183924897 392.5963940252514,297.6621162449486 410.32215919005756,274.6697355016771 C446.5939707709698,227.63149421818176 371.9441046045059,159.6452123568291 304.9245629944037,178.68151861783954 M569.0764874038518,220.75809106743765 C453.60481209067257,232.3058503801829 378.91649524055407,333.141547728318 415.0088702977444,428.76878202438877 C447.6834068078523,515.3493506515272 561.6042378802929,561.4004150623541 658.0342801880395,527.0112983338721 C666.7155900976287,523.9134783715057 675.0764776434293,521.2613614001575 676.6059603932484,521.1177050642095 C678.1397154412518,520.9740487282614 715.7530286518937,552.7663009222981 760.193474360333,591.7708378800845 C845.8445083502182,666.9509870262192 848.5574176969649,668.9437582505238 866.9154829929812,670.2587662488174 C902.2132105879749,672.7819608673918 923.784044118249,643.2661090737624 908.1517050635306,613.8276106917972 C903.5675291122565,605.1898130559478 862.8781612092401,568.2775017088917 760.2020189567006,479.61207446261 L745.825735568035,467.19869363838296 L754.8701908232518,451.588038465364 C816.6476225617669,344.9692527213724 723.01166326626,214.27145497501508 588.374458300316,219.18155486780284 C585.3112205024934,219.29205974160902 576.6256382947201,220.00297442976208 569.0764874038518,220.75809106743765 M620.5704974138323,266.24926411764653 C723.4559822773807,287.1604697375684 759.6978877710059,395.7278247563423 685.2402750228156,459.97535838725264 C619.0666484531162,517.0695431871101 511.5585369546387,501.8603890555867 470.32231488408945,429.5681006115867 C420.98154315877093,343.0796193792868 511.9729498784725,244.17407382696626 620.5704974138323,266.24926411764653 M246.92811514859886,387.13791256580885 C194.16950487619798,410.1671282670158 139.78314899574897,450.4940402146828 139.78314899574897,466.5872333366556 C139.78314899574897,484.496389884843 135.28441900815176,483.9401820200186 285.15236699953186,484.4742889100818 L412.8727212058179,484.92735889268704 L406.0925839880431,475.78860582891633 C397.6975180567719,464.4765902469574 390.050104307675,450.0704381984258 384.11588213030325,434.39716359691664 C380.1170110302169,423.8292141652526 378.4978100185364,417.4678169298105 374.7082815294587,397.38539786343495 L373.7683759290111,392.4237290295376 L364.83500042657454,396.1109083188703 C336.6121986240415,407.7581220180412 302.26292122586324,403.54788632602595 278.45767574543413,385.5282249040323 C270.0284314286922,379.14841018962244 264.5940681388312,379.42467237413786 246.92811514859886,387.13791256580885 M140.6290640361519,538.4006673274954 C134.98963043346595,543.262881774967 134.70765875333163,550.162069396266 139.91986253763233,555.8714878762516 L143.76920320128394,560.0927740556475 L319.0359638956702,560.0927740556475 L494.30272459005647,560.0927740556475 L498.1520652537079,555.8714878762516 C503.1891048124707,550.3499276817365 503.0438466742197,549.6426964893769 496.3662446128575,547.259474710957 C493.26882842956394,546.1507424771019 486.06146139340393,542.8208622797424 480.3536710197763,539.8556481659434 L469.97198643301346,534.4666938199955 L307.58193246476014,534.4666938199955 L145.18760619832312,534.4666938199955 L140.6290640361519,538.4006673274954 " stroke="none" fill="#8A9A5B" fill-rule="evenodd"/></g></g></svg>